<mxfile host="app.diagrams.net" modified="2022-05-05T13:59:00.502Z" agent="5.0 (Windows NT 10.0; Win64; x64) AppleWebKit/537.36 (KHTML, like Gecko) Chrome/101.0.4951.41 Safari/537.36 Edg/101.0.1210.32" etag="PIBkQw42Eaq4Q6x2Rmi5" version="17.5.1" type="github">
  <diagram id="5ZXqLG5ezFchvfL40zLk" name="Page-1">
    <mxGraphModel dx="1038" dy="579" grid="1" gridSize="10" guides="1" tooltips="1" connect="1" arrows="1" fold="1" page="1" pageScale="1" pageWidth="850" pageHeight="1100" math="0" shadow="0">
      <root>
        <mxCell id="0" />
        <mxCell id="1" parent="0" />
        <mxCell id="fl-IDfW7KY5KwE-RLPxu-3" value="" style="edgeStyle=orthogonalEdgeStyle;rounded=0;orthogonalLoop=1;jettySize=auto;html=1;" edge="1" parent="1" source="fl-IDfW7KY5KwE-RLPxu-1" target="fl-IDfW7KY5KwE-RLPxu-2">
          <mxGeometry relative="1" as="geometry" />
        </mxCell>
        <mxCell id="fl-IDfW7KY5KwE-RLPxu-1" value="start" style="rounded=1;whiteSpace=wrap;html=1;" vertex="1" parent="1">
          <mxGeometry x="80" y="30" width="90" height="20" as="geometry" />
        </mxCell>
        <mxCell id="fl-IDfW7KY5KwE-RLPxu-5" value="" style="edgeStyle=orthogonalEdgeStyle;rounded=0;orthogonalLoop=1;jettySize=auto;html=1;" edge="1" parent="1" source="fl-IDfW7KY5KwE-RLPxu-2" target="fl-IDfW7KY5KwE-RLPxu-4">
          <mxGeometry relative="1" as="geometry" />
        </mxCell>
        <mxCell id="fl-IDfW7KY5KwE-RLPxu-2" value="IF signal road" style="rhombus;whiteSpace=wrap;html=1;" vertex="1" parent="1">
          <mxGeometry x="85" y="90" width="80" height="80" as="geometry" />
        </mxCell>
        <mxCell id="fl-IDfW7KY5KwE-RLPxu-7" value="" style="edgeStyle=orthogonalEdgeStyle;rounded=0;orthogonalLoop=1;jettySize=auto;html=1;" edge="1" parent="1" source="fl-IDfW7KY5KwE-RLPxu-4" target="fl-IDfW7KY5KwE-RLPxu-6">
          <mxGeometry relative="1" as="geometry" />
        </mxCell>
        <mxCell id="fl-IDfW7KY5KwE-RLPxu-4" value="IF vehicle moving road = signal road" style="rhombus;whiteSpace=wrap;html=1;" vertex="1" parent="1">
          <mxGeometry x="85" y="200" width="80" height="80" as="geometry" />
        </mxCell>
        <mxCell id="fl-IDfW7KY5KwE-RLPxu-9" value="" style="edgeStyle=orthogonalEdgeStyle;rounded=0;orthogonalLoop=1;jettySize=auto;html=1;" edge="1" parent="1" source="fl-IDfW7KY5KwE-RLPxu-6" target="fl-IDfW7KY5KwE-RLPxu-8">
          <mxGeometry relative="1" as="geometry" />
        </mxCell>
        <mxCell id="fl-IDfW7KY5KwE-RLPxu-6" value="&lt;div&gt;call&amp;nbsp;getAgentNeighbors&lt;span style=&quot;color: rgba(0 , 0 , 0 , 0) ; font-family: monospace ; font-size: 0px&quot;&gt;%3CmxGraphModel%3E%3Croot%3E%3CmxCell%20id%3D%220%22%2F%3E%3CmxCell%20id%3D%221%22%20parent%3D%220%22%2F%3E%3CmxCell%20id%3D%222%22%20value%3D%22predefine%20function%22%20style%3D%22rounded%3D1%3BwhiteSpace%3Dwrap%3Bhtml%3D1%3BfillColor%3D%23ffcc99%3BstrokeColor%3D%2336393d%3B%22%20vertex%3D%221%22%20parent%3D%221%22%3E%3CmxGeometry%20x%3D%22360%22%20y%3D%22550%22%20width%3D%22120%22%20height%3D%2260%22%20as%3D%22geometry%22%2F%3E%3C%2FmxCell%3E%3C%2Froot%3E%3C%2FmxGraphModel%3E&lt;/span&gt;&lt;span style=&quot;font-size: 0px&quot;&gt;&lt;font color=&quot;rgba(0, 0, 0, 0)&quot; face=&quot;monospace&quot;&gt;getAgentNeighbors&lt;/font&gt;&lt;/span&gt;&lt;/div&gt;" style="rounded=1;whiteSpace=wrap;html=1;fillColor=#ffcc99;strokeColor=#36393d;" vertex="1" parent="1">
          <mxGeometry x="65" y="320" width="120" height="60" as="geometry" />
        </mxCell>
        <mxCell id="fl-IDfW7KY5KwE-RLPxu-8" value="call&amp;nbsp;getAgentIds&lt;br&gt;FromBoundaries" style="rounded=1;whiteSpace=wrap;html=1;fillColor=#d5e8d4;gradientColor=#97d077;strokeColor=#82b366;" vertex="1" parent="1">
          <mxGeometry x="65" y="420" width="120" height="60" as="geometry" />
        </mxCell>
      </root>
    </mxGraphModel>
  </diagram>
</mxfile>
